<mxfile host="Electron" agent="Mozilla/5.0 (Windows NT 10.0; Win64; x64) AppleWebKit/537.36 (KHTML, like Gecko) draw.io/26.2.15 Chrome/134.0.6998.205 Electron/35.2.1 Safari/537.36" version="26.2.15">
  <diagram id="C5RBs43oDa-KdzZeNtuy" name="Page-1">
    <mxGraphModel dx="1042" dy="634" grid="1" gridSize="10" guides="1" tooltips="1" connect="1" arrows="1" fold="1" page="1" pageScale="1" pageWidth="827" pageHeight="1169" math="0" shadow="0">
      <root>
        <mxCell id="WIyWlLk6GJQsqaUBKTNV-0" />
        <mxCell id="WIyWlLk6GJQsqaUBKTNV-1" parent="WIyWlLk6GJQsqaUBKTNV-0" />
        <mxCell id="lPJ8_AUzKYWF8t1PkoNp-1" value="" style="rounded=0;whiteSpace=wrap;html=1;fillColor=none;strokeColor=light-dark(#787878, #ededed);dashed=1;dashPattern=1 2;" vertex="1" parent="WIyWlLk6GJQsqaUBKTNV-1">
          <mxGeometry x="20" y="150" width="120" height="370" as="geometry" />
        </mxCell>
        <mxCell id="lPJ8_AUzKYWF8t1PkoNp-2" value="Sources" style="rounded=0;whiteSpace=wrap;html=1;textShadow=0;fontSize=16;strokeColor=none;fontStyle=0" vertex="1" parent="WIyWlLk6GJQsqaUBKTNV-1">
          <mxGeometry x="48.120000000000005" y="140" width="60" height="20" as="geometry" />
        </mxCell>
        <mxCell id="lPJ8_AUzKYWF8t1PkoNp-7" value="Bronze Layer" style="rounded=0;whiteSpace=wrap;html=1;fillColor=#FFB570;strokeColor=light-dark(#ffb570, #6d5100);textShadow=0;fontSize=15;fontStyle=1" vertex="1" parent="WIyWlLk6GJQsqaUBKTNV-1">
          <mxGeometry x="260" y="140" width="110" height="20" as="geometry" />
        </mxCell>
        <mxCell id="lPJ8_AUzKYWF8t1PkoNp-8" value="" style="rounded=0;whiteSpace=wrap;html=1;fillColor=none;strokeColor=#FFB570;textShadow=1;fontSize=16;" vertex="1" parent="WIyWlLk6GJQsqaUBKTNV-1">
          <mxGeometry x="230" y="160" width="160" height="360" as="geometry" />
        </mxCell>
        <mxCell id="lPJ8_AUzKYWF8t1PkoNp-9" value="" style="rounded=0;whiteSpace=wrap;html=1;fillColor=none;strokeColor=#CCCCCC;textShadow=1;fontSize=16;fontColor=#333333;fontStyle=1" vertex="1" parent="WIyWlLk6GJQsqaUBKTNV-1">
          <mxGeometry x="430" y="160" width="160" height="360" as="geometry" />
        </mxCell>
        <mxCell id="lPJ8_AUzKYWF8t1PkoNp-10" value="" style="rounded=0;whiteSpace=wrap;html=1;fillColor=none;strokeColor=#FFFF00;textShadow=1;fontSize=16;" vertex="1" parent="WIyWlLk6GJQsqaUBKTNV-1">
          <mxGeometry x="620" y="160" width="160" height="360" as="geometry" />
        </mxCell>
        <mxCell id="lPJ8_AUzKYWF8t1PkoNp-80" style="edgeStyle=orthogonalEdgeStyle;rounded=0;orthogonalLoop=1;jettySize=auto;html=1;entryX=0;entryY=0.5;entryDx=0;entryDy=0;" edge="1" parent="WIyWlLk6GJQsqaUBKTNV-1" source="lPJ8_AUzKYWF8t1PkoNp-13" target="lPJ8_AUzKYWF8t1PkoNp-43">
          <mxGeometry relative="1" as="geometry" />
        </mxCell>
        <mxCell id="lPJ8_AUzKYWF8t1PkoNp-13" value="CRM" style="image;aspect=fixed;html=1;points=[];align=center;fontSize=12;image=img/lib/azure2/general/Folder_Blank.svg;fontStyle=5;fontFamily=Helvetica;" vertex="1" parent="WIyWlLk6GJQsqaUBKTNV-1">
          <mxGeometry x="48.120000000000005" y="235" width="36.96" height="30" as="geometry" />
        </mxCell>
        <mxCell id="lPJ8_AUzKYWF8t1PkoNp-89" style="edgeStyle=orthogonalEdgeStyle;rounded=0;orthogonalLoop=1;jettySize=auto;html=1;entryX=0;entryY=0.5;entryDx=0;entryDy=0;" edge="1" parent="WIyWlLk6GJQsqaUBKTNV-1" source="lPJ8_AUzKYWF8t1PkoNp-14" target="lPJ8_AUzKYWF8t1PkoNp-87">
          <mxGeometry relative="1" as="geometry" />
        </mxCell>
        <mxCell id="lPJ8_AUzKYWF8t1PkoNp-14" value="ERP" style="image;aspect=fixed;html=1;points=[];align=center;fontSize=12;image=img/lib/azure2/general/Folder_Blank.svg;fontStyle=1;fontFamily=Helvetica;" vertex="1" parent="WIyWlLk6GJQsqaUBKTNV-1">
          <mxGeometry x="59.64" y="400" width="36.96" height="30" as="geometry" />
        </mxCell>
        <mxCell id="lPJ8_AUzKYWF8t1PkoNp-15" value="" style="image;aspect=fixed;html=1;points=[];align=center;fontSize=12;image=img/lib/azure2/general/File.svg;fontStyle=0" vertex="1" parent="WIyWlLk6GJQsqaUBKTNV-1">
          <mxGeometry x="91.88999999999999" y="420" width="16.23" height="20" as="geometry" />
        </mxCell>
        <mxCell id="lPJ8_AUzKYWF8t1PkoNp-16" value="" style="endArrow=none;html=1;rounded=0;fillColor=#f5f5f5;strokeColor=#CCCCCC;" edge="1" parent="WIyWlLk6GJQsqaUBKTNV-1">
          <mxGeometry width="50" height="50" relative="1" as="geometry">
            <mxPoint x="63.120000000000005" y="460" as="sourcePoint" />
            <mxPoint x="113.12" y="460" as="targetPoint" />
            <Array as="points">
              <mxPoint x="33.120000000000005" y="460" />
              <mxPoint x="133.12" y="460" />
            </Array>
          </mxGeometry>
        </mxCell>
        <mxCell id="lPJ8_AUzKYWF8t1PkoNp-17" value="&lt;span&gt;Object Type:&lt;/span&gt; CSV File&lt;div&gt;&lt;span&gt;Interface:&lt;/span&gt; Files in Folder&lt;/div&gt;" style="text;html=1;align=center;verticalAlign=middle;whiteSpace=wrap;rounded=0;fontSize=9;fontStyle=1" vertex="1" parent="WIyWlLk6GJQsqaUBKTNV-1">
          <mxGeometry x="23.119999999999997" y="475" width="110" height="30" as="geometry" />
        </mxCell>
        <mxCell id="lPJ8_AUzKYWF8t1PkoNp-18" value="" style="image;aspect=fixed;html=1;points=[];align=center;fontSize=12;image=img/lib/azure2/general/File.svg;fontStyle=0" vertex="1" parent="WIyWlLk6GJQsqaUBKTNV-1">
          <mxGeometry x="80.36999999999999" y="250" width="16.23" height="20" as="geometry" />
        </mxCell>
        <mxCell id="lPJ8_AUzKYWF8t1PkoNp-69" style="edgeStyle=orthogonalEdgeStyle;rounded=0;orthogonalLoop=1;jettySize=auto;html=1;" edge="1" parent="WIyWlLk6GJQsqaUBKTNV-1" source="lPJ8_AUzKYWF8t1PkoNp-42">
          <mxGeometry relative="1" as="geometry">
            <mxPoint x="160" y="280" as="targetPoint" />
          </mxGeometry>
        </mxCell>
        <mxCell id="lPJ8_AUzKYWF8t1PkoNp-42" value="" style="rounded=1;whiteSpace=wrap;html=1;" vertex="1" parent="WIyWlLk6GJQsqaUBKTNV-1">
          <mxGeometry x="250" y="190" width="127" height="20" as="geometry" />
        </mxCell>
        <mxCell id="lPJ8_AUzKYWF8t1PkoNp-43" value="" style="rounded=1;whiteSpace=wrap;html=1;" vertex="1" parent="WIyWlLk6GJQsqaUBKTNV-1">
          <mxGeometry x="250" y="240" width="127" height="20" as="geometry" />
        </mxCell>
        <mxCell id="lPJ8_AUzKYWF8t1PkoNp-78" style="edgeStyle=orthogonalEdgeStyle;rounded=0;orthogonalLoop=1;jettySize=auto;html=1;" edge="1" parent="WIyWlLk6GJQsqaUBKTNV-1" source="lPJ8_AUzKYWF8t1PkoNp-44">
          <mxGeometry relative="1" as="geometry">
            <mxPoint x="160" y="240" as="targetPoint" />
          </mxGeometry>
        </mxCell>
        <mxCell id="lPJ8_AUzKYWF8t1PkoNp-44" value="" style="rounded=1;whiteSpace=wrap;html=1;" vertex="1" parent="WIyWlLk6GJQsqaUBKTNV-1">
          <mxGeometry x="250" y="290" width="127" height="20" as="geometry" />
        </mxCell>
        <mxCell id="lPJ8_AUzKYWF8t1PkoNp-84" style="edgeStyle=orthogonalEdgeStyle;rounded=0;orthogonalLoop=1;jettySize=auto;html=1;" edge="1" source="lPJ8_AUzKYWF8t1PkoNp-86" parent="WIyWlLk6GJQsqaUBKTNV-1">
          <mxGeometry relative="1" as="geometry">
            <mxPoint x="160" y="445" as="targetPoint" />
          </mxGeometry>
        </mxCell>
        <mxCell id="lPJ8_AUzKYWF8t1PkoNp-85" style="edgeStyle=orthogonalEdgeStyle;rounded=0;orthogonalLoop=1;jettySize=auto;html=1;" edge="1" source="lPJ8_AUzKYWF8t1PkoNp-88" parent="WIyWlLk6GJQsqaUBKTNV-1">
          <mxGeometry relative="1" as="geometry">
            <mxPoint x="160" y="405" as="targetPoint" />
          </mxGeometry>
        </mxCell>
        <mxCell id="lPJ8_AUzKYWF8t1PkoNp-86" value="" style="rounded=1;whiteSpace=wrap;html=1;" vertex="1" parent="WIyWlLk6GJQsqaUBKTNV-1">
          <mxGeometry x="250" y="355" width="127" height="20" as="geometry" />
        </mxCell>
        <mxCell id="lPJ8_AUzKYWF8t1PkoNp-87" value="" style="rounded=1;whiteSpace=wrap;html=1;" vertex="1" parent="WIyWlLk6GJQsqaUBKTNV-1">
          <mxGeometry x="250" y="405" width="127" height="20" as="geometry" />
        </mxCell>
        <mxCell id="lPJ8_AUzKYWF8t1PkoNp-88" value="" style="rounded=1;whiteSpace=wrap;html=1;" vertex="1" parent="WIyWlLk6GJQsqaUBKTNV-1">
          <mxGeometry x="250" y="455" width="127" height="20" as="geometry" />
        </mxCell>
        <mxCell id="lPJ8_AUzKYWF8t1PkoNp-112" style="edgeStyle=orthogonalEdgeStyle;rounded=0;orthogonalLoop=1;jettySize=auto;html=1;entryX=0;entryY=0.75;entryDx=0;entryDy=0;" edge="1" parent="WIyWlLk6GJQsqaUBKTNV-1" source="lPJ8_AUzKYWF8t1PkoNp-90" target="lPJ8_AUzKYWF8t1PkoNp-99">
          <mxGeometry relative="1" as="geometry" />
        </mxCell>
        <mxCell id="lPJ8_AUzKYWF8t1PkoNp-90" value="crm_cust_info" style="text;html=1;align=center;verticalAlign=middle;whiteSpace=wrap;rounded=0;" vertex="1" parent="WIyWlLk6GJQsqaUBKTNV-1">
          <mxGeometry x="273.5" y="185" width="80" height="30" as="geometry" />
        </mxCell>
        <mxCell id="lPJ8_AUzKYWF8t1PkoNp-115" style="edgeStyle=orthogonalEdgeStyle;rounded=0;orthogonalLoop=1;jettySize=auto;html=1;entryX=0;entryY=0.75;entryDx=0;entryDy=0;" edge="1" parent="WIyWlLk6GJQsqaUBKTNV-1" source="lPJ8_AUzKYWF8t1PkoNp-91" target="lPJ8_AUzKYWF8t1PkoNp-100">
          <mxGeometry relative="1" as="geometry" />
        </mxCell>
        <mxCell id="lPJ8_AUzKYWF8t1PkoNp-91" value="crm_prd_info" style="text;html=1;align=center;verticalAlign=middle;whiteSpace=wrap;rounded=0;" vertex="1" parent="WIyWlLk6GJQsqaUBKTNV-1">
          <mxGeometry x="275" y="235" width="80" height="30" as="geometry" />
        </mxCell>
        <mxCell id="lPJ8_AUzKYWF8t1PkoNp-114" style="edgeStyle=orthogonalEdgeStyle;rounded=0;orthogonalLoop=1;jettySize=auto;html=1;entryX=0;entryY=0.75;entryDx=0;entryDy=0;" edge="1" parent="WIyWlLk6GJQsqaUBKTNV-1" source="lPJ8_AUzKYWF8t1PkoNp-92" target="lPJ8_AUzKYWF8t1PkoNp-101">
          <mxGeometry relative="1" as="geometry" />
        </mxCell>
        <mxCell id="lPJ8_AUzKYWF8t1PkoNp-92" value="crm_sales_details" style="text;html=1;align=center;verticalAlign=middle;whiteSpace=wrap;rounded=0;" vertex="1" parent="WIyWlLk6GJQsqaUBKTNV-1">
          <mxGeometry x="273.5" y="285" width="80" height="30" as="geometry" />
        </mxCell>
        <mxCell id="lPJ8_AUzKYWF8t1PkoNp-120" style="edgeStyle=orthogonalEdgeStyle;rounded=0;orthogonalLoop=1;jettySize=auto;html=1;entryX=0;entryY=0.75;entryDx=0;entryDy=0;" edge="1" parent="WIyWlLk6GJQsqaUBKTNV-1" source="lPJ8_AUzKYWF8t1PkoNp-93" target="lPJ8_AUzKYWF8t1PkoNp-102">
          <mxGeometry relative="1" as="geometry" />
        </mxCell>
        <mxCell id="lPJ8_AUzKYWF8t1PkoNp-93" value="erp_cust_az12" style="text;html=1;align=center;verticalAlign=middle;whiteSpace=wrap;rounded=0;" vertex="1" parent="WIyWlLk6GJQsqaUBKTNV-1">
          <mxGeometry x="275" y="350" width="80" height="30" as="geometry" />
        </mxCell>
        <mxCell id="lPJ8_AUzKYWF8t1PkoNp-118" style="edgeStyle=orthogonalEdgeStyle;rounded=0;orthogonalLoop=1;jettySize=auto;html=1;entryX=0;entryY=0.75;entryDx=0;entryDy=0;" edge="1" parent="WIyWlLk6GJQsqaUBKTNV-1" source="lPJ8_AUzKYWF8t1PkoNp-94" target="lPJ8_AUzKYWF8t1PkoNp-104">
          <mxGeometry relative="1" as="geometry" />
        </mxCell>
        <mxCell id="lPJ8_AUzKYWF8t1PkoNp-94" value="erp_px_cat_g1v2" style="text;html=1;align=center;verticalAlign=middle;whiteSpace=wrap;rounded=0;" vertex="1" parent="WIyWlLk6GJQsqaUBKTNV-1">
          <mxGeometry x="275" y="450" width="85" height="30" as="geometry" />
        </mxCell>
        <mxCell id="lPJ8_AUzKYWF8t1PkoNp-119" style="edgeStyle=orthogonalEdgeStyle;rounded=0;orthogonalLoop=1;jettySize=auto;html=1;entryX=0;entryY=0.75;entryDx=0;entryDy=0;" edge="1" parent="WIyWlLk6GJQsqaUBKTNV-1" source="lPJ8_AUzKYWF8t1PkoNp-97" target="lPJ8_AUzKYWF8t1PkoNp-103">
          <mxGeometry relative="1" as="geometry">
            <mxPoint x="440" y="415" as="targetPoint" />
          </mxGeometry>
        </mxCell>
        <mxCell id="lPJ8_AUzKYWF8t1PkoNp-97" value="erp_loc_a101" style="text;html=1;align=center;verticalAlign=middle;whiteSpace=wrap;rounded=0;" vertex="1" parent="WIyWlLk6GJQsqaUBKTNV-1">
          <mxGeometry x="270" y="400" width="80" height="30" as="geometry" />
        </mxCell>
        <mxCell id="lPJ8_AUzKYWF8t1PkoNp-145" style="edgeStyle=orthogonalEdgeStyle;rounded=0;orthogonalLoop=1;jettySize=auto;html=1;entryX=0;entryY=0.5;entryDx=0;entryDy=0;" edge="1" parent="WIyWlLk6GJQsqaUBKTNV-1" source="lPJ8_AUzKYWF8t1PkoNp-99" target="lPJ8_AUzKYWF8t1PkoNp-134">
          <mxGeometry relative="1" as="geometry" />
        </mxCell>
        <mxCell id="lPJ8_AUzKYWF8t1PkoNp-99" value="" style="rounded=1;whiteSpace=wrap;html=1;" vertex="1" parent="WIyWlLk6GJQsqaUBKTNV-1">
          <mxGeometry x="450" y="185" width="127" height="20" as="geometry" />
        </mxCell>
        <mxCell id="lPJ8_AUzKYWF8t1PkoNp-100" value="" style="rounded=1;whiteSpace=wrap;html=1;" vertex="1" parent="WIyWlLk6GJQsqaUBKTNV-1">
          <mxGeometry x="450" y="235" width="127" height="20" as="geometry" />
        </mxCell>
        <mxCell id="lPJ8_AUzKYWF8t1PkoNp-101" value="" style="rounded=1;whiteSpace=wrap;html=1;" vertex="1" parent="WIyWlLk6GJQsqaUBKTNV-1">
          <mxGeometry x="450" y="285" width="127" height="20" as="geometry" />
        </mxCell>
        <mxCell id="lPJ8_AUzKYWF8t1PkoNp-102" value="" style="rounded=1;whiteSpace=wrap;html=1;" vertex="1" parent="WIyWlLk6GJQsqaUBKTNV-1">
          <mxGeometry x="450" y="350" width="127" height="20" as="geometry" />
        </mxCell>
        <mxCell id="lPJ8_AUzKYWF8t1PkoNp-103" value="" style="rounded=1;whiteSpace=wrap;html=1;" vertex="1" parent="WIyWlLk6GJQsqaUBKTNV-1">
          <mxGeometry x="450" y="400" width="127" height="20" as="geometry" />
        </mxCell>
        <mxCell id="lPJ8_AUzKYWF8t1PkoNp-104" value="" style="rounded=1;whiteSpace=wrap;html=1;" vertex="1" parent="WIyWlLk6GJQsqaUBKTNV-1">
          <mxGeometry x="450" y="450" width="127" height="20" as="geometry" />
        </mxCell>
        <mxCell id="lPJ8_AUzKYWF8t1PkoNp-105" value="crm_cust_info" style="text;html=1;align=center;verticalAlign=middle;whiteSpace=wrap;rounded=0;" vertex="1" parent="WIyWlLk6GJQsqaUBKTNV-1">
          <mxGeometry x="473.5" y="180" width="80" height="30" as="geometry" />
        </mxCell>
        <mxCell id="lPJ8_AUzKYWF8t1PkoNp-146" style="edgeStyle=orthogonalEdgeStyle;rounded=0;orthogonalLoop=1;jettySize=auto;html=1;entryX=0;entryY=0.5;entryDx=0;entryDy=0;" edge="1" parent="WIyWlLk6GJQsqaUBKTNV-1" source="lPJ8_AUzKYWF8t1PkoNp-106" target="lPJ8_AUzKYWF8t1PkoNp-135">
          <mxGeometry relative="1" as="geometry" />
        </mxCell>
        <mxCell id="lPJ8_AUzKYWF8t1PkoNp-106" value="crm_prd_info" style="text;html=1;align=center;verticalAlign=middle;whiteSpace=wrap;rounded=0;" vertex="1" parent="WIyWlLk6GJQsqaUBKTNV-1">
          <mxGeometry x="475" y="230" width="80" height="30" as="geometry" />
        </mxCell>
        <mxCell id="lPJ8_AUzKYWF8t1PkoNp-147" style="edgeStyle=orthogonalEdgeStyle;rounded=0;orthogonalLoop=1;jettySize=auto;html=1;entryX=0;entryY=0.5;entryDx=0;entryDy=0;" edge="1" parent="WIyWlLk6GJQsqaUBKTNV-1" source="lPJ8_AUzKYWF8t1PkoNp-107" target="lPJ8_AUzKYWF8t1PkoNp-136">
          <mxGeometry relative="1" as="geometry" />
        </mxCell>
        <mxCell id="lPJ8_AUzKYWF8t1PkoNp-107" value="crm_sales_details" style="text;html=1;align=center;verticalAlign=middle;whiteSpace=wrap;rounded=0;" vertex="1" parent="WIyWlLk6GJQsqaUBKTNV-1">
          <mxGeometry x="473.5" y="280" width="80" height="30" as="geometry" />
        </mxCell>
        <mxCell id="lPJ8_AUzKYWF8t1PkoNp-148" style="edgeStyle=orthogonalEdgeStyle;rounded=0;orthogonalLoop=1;jettySize=auto;html=1;entryX=0;entryY=0.5;entryDx=0;entryDy=0;" edge="1" parent="WIyWlLk6GJQsqaUBKTNV-1" source="lPJ8_AUzKYWF8t1PkoNp-108" target="lPJ8_AUzKYWF8t1PkoNp-137">
          <mxGeometry relative="1" as="geometry" />
        </mxCell>
        <mxCell id="lPJ8_AUzKYWF8t1PkoNp-108" value="erp_cust_az12" style="text;html=1;align=center;verticalAlign=middle;whiteSpace=wrap;rounded=0;" vertex="1" parent="WIyWlLk6GJQsqaUBKTNV-1">
          <mxGeometry x="475" y="345" width="80" height="30" as="geometry" />
        </mxCell>
        <mxCell id="lPJ8_AUzKYWF8t1PkoNp-151" style="edgeStyle=orthogonalEdgeStyle;rounded=0;orthogonalLoop=1;jettySize=auto;html=1;entryX=0;entryY=0.5;entryDx=0;entryDy=0;" edge="1" parent="WIyWlLk6GJQsqaUBKTNV-1" source="lPJ8_AUzKYWF8t1PkoNp-109" target="lPJ8_AUzKYWF8t1PkoNp-139">
          <mxGeometry relative="1" as="geometry" />
        </mxCell>
        <mxCell id="lPJ8_AUzKYWF8t1PkoNp-109" value="erp_px_cat_g1v2" style="text;html=1;align=center;verticalAlign=middle;whiteSpace=wrap;rounded=0;" vertex="1" parent="WIyWlLk6GJQsqaUBKTNV-1">
          <mxGeometry x="475" y="445" width="85" height="30" as="geometry" />
        </mxCell>
        <mxCell id="lPJ8_AUzKYWF8t1PkoNp-150" style="edgeStyle=orthogonalEdgeStyle;rounded=0;orthogonalLoop=1;jettySize=auto;html=1;entryX=0;entryY=0.5;entryDx=0;entryDy=0;" edge="1" parent="WIyWlLk6GJQsqaUBKTNV-1" source="lPJ8_AUzKYWF8t1PkoNp-110" target="lPJ8_AUzKYWF8t1PkoNp-138">
          <mxGeometry relative="1" as="geometry" />
        </mxCell>
        <mxCell id="lPJ8_AUzKYWF8t1PkoNp-110" value="erp_loc_a101" style="text;html=1;align=center;verticalAlign=middle;whiteSpace=wrap;rounded=0;" vertex="1" parent="WIyWlLk6GJQsqaUBKTNV-1">
          <mxGeometry x="470" y="395" width="80" height="30" as="geometry" />
        </mxCell>
        <mxCell id="lPJ8_AUzKYWF8t1PkoNp-134" value="" style="rounded=1;whiteSpace=wrap;html=1;" vertex="1" parent="WIyWlLk6GJQsqaUBKTNV-1">
          <mxGeometry x="640" y="185" width="127" height="20" as="geometry" />
        </mxCell>
        <mxCell id="lPJ8_AUzKYWF8t1PkoNp-135" value="" style="rounded=1;whiteSpace=wrap;html=1;" vertex="1" parent="WIyWlLk6GJQsqaUBKTNV-1">
          <mxGeometry x="640" y="235" width="127" height="20" as="geometry" />
        </mxCell>
        <mxCell id="lPJ8_AUzKYWF8t1PkoNp-136" value="" style="rounded=1;whiteSpace=wrap;html=1;" vertex="1" parent="WIyWlLk6GJQsqaUBKTNV-1">
          <mxGeometry x="640" y="285" width="127" height="20" as="geometry" />
        </mxCell>
        <mxCell id="lPJ8_AUzKYWF8t1PkoNp-137" value="" style="rounded=1;whiteSpace=wrap;html=1;" vertex="1" parent="WIyWlLk6GJQsqaUBKTNV-1">
          <mxGeometry x="640" y="350" width="127" height="20" as="geometry" />
        </mxCell>
        <mxCell id="lPJ8_AUzKYWF8t1PkoNp-138" value="" style="rounded=1;whiteSpace=wrap;html=1;" vertex="1" parent="WIyWlLk6GJQsqaUBKTNV-1">
          <mxGeometry x="640" y="400" width="127" height="20" as="geometry" />
        </mxCell>
        <mxCell id="lPJ8_AUzKYWF8t1PkoNp-139" value="" style="rounded=1;whiteSpace=wrap;html=1;" vertex="1" parent="WIyWlLk6GJQsqaUBKTNV-1">
          <mxGeometry x="640" y="450" width="127" height="20" as="geometry" />
        </mxCell>
        <mxCell id="lPJ8_AUzKYWF8t1PkoNp-140" value="crm_cust_info" style="text;html=1;align=center;verticalAlign=middle;whiteSpace=wrap;rounded=0;" vertex="1" parent="WIyWlLk6GJQsqaUBKTNV-1">
          <mxGeometry x="663.5" y="180" width="80" height="30" as="geometry" />
        </mxCell>
        <mxCell id="lPJ8_AUzKYWF8t1PkoNp-141" value="crm_prd_info" style="text;html=1;align=center;verticalAlign=middle;whiteSpace=wrap;rounded=0;" vertex="1" parent="WIyWlLk6GJQsqaUBKTNV-1">
          <mxGeometry x="665" y="230" width="80" height="30" as="geometry" />
        </mxCell>
        <mxCell id="lPJ8_AUzKYWF8t1PkoNp-142" value="crm_sales_details" style="text;html=1;align=center;verticalAlign=middle;whiteSpace=wrap;rounded=0;" vertex="1" parent="WIyWlLk6GJQsqaUBKTNV-1">
          <mxGeometry x="663.5" y="280" width="80" height="30" as="geometry" />
        </mxCell>
        <mxCell id="lPJ8_AUzKYWF8t1PkoNp-143" value="erp_cust_az12" style="text;html=1;align=center;verticalAlign=middle;whiteSpace=wrap;rounded=0;" vertex="1" parent="WIyWlLk6GJQsqaUBKTNV-1">
          <mxGeometry x="665" y="345" width="80" height="30" as="geometry" />
        </mxCell>
        <mxCell id="lPJ8_AUzKYWF8t1PkoNp-144" value="erp_loc_a101" style="text;html=1;align=center;verticalAlign=middle;whiteSpace=wrap;rounded=0;" vertex="1" parent="WIyWlLk6GJQsqaUBKTNV-1">
          <mxGeometry x="660" y="395" width="80" height="30" as="geometry" />
        </mxCell>
        <mxCell id="lPJ8_AUzKYWF8t1PkoNp-152" value="erp_loc_a101" style="text;html=1;align=center;verticalAlign=middle;whiteSpace=wrap;rounded=0;" vertex="1" parent="WIyWlLk6GJQsqaUBKTNV-1">
          <mxGeometry x="660" y="445" width="80" height="30" as="geometry" />
        </mxCell>
        <mxCell id="lPJ8_AUzKYWF8t1PkoNp-155" value="Silver Layer" style="rounded=0;whiteSpace=wrap;html=1;fillColor=#f5f5f5;strokeColor=light-dark(#f5f5f5, #959595);textShadow=0;fontSize=15;fontStyle=1;fontColor=#333333;" vertex="1" parent="WIyWlLk6GJQsqaUBKTNV-1">
          <mxGeometry x="455" y="140" width="110" height="20" as="geometry" />
        </mxCell>
        <mxCell id="lPJ8_AUzKYWF8t1PkoNp-156" value="Gold Layer" style="rounded=0;whiteSpace=wrap;html=1;fillColor=light-dark(#ffff00, #7e3f03);strokeColor=light-dark(#FFFF00,#FFFF00);textShadow=0;fontSize=15;fontStyle=1" vertex="1" parent="WIyWlLk6GJQsqaUBKTNV-1">
          <mxGeometry x="640" y="140" width="110" height="20" as="geometry" />
        </mxCell>
        <mxCell id="lPJ8_AUzKYWF8t1PkoNp-157" value="Data Flow Diagram" style="text;html=1;align=center;verticalAlign=middle;whiteSpace=wrap;rounded=0;fontStyle=1;fontSize=22;" vertex="1" parent="WIyWlLk6GJQsqaUBKTNV-1">
          <mxGeometry x="45" y="20" width="230" height="30" as="geometry" />
        </mxCell>
      </root>
    </mxGraphModel>
  </diagram>
</mxfile>
